<svg xmlns="http://www.w3.org/2000/svg" viewBox="0 0 1600 900" role="img" aria-labelledby="title desc">
  <title id="title">CNC machine shop floor</title>
  <desc id="desc">Illustrated precision machining facility with CNC machines and overhead lighting.</desc>
  <defs>
    <linearGradient id="bg" x1="0" x2="1" y1="0" y2="1">
      <stop offset="0" stop-color="#e6eef5"/>
      <stop offset="1" stop-color="#f8fafc"/>
    </linearGradient>
    <linearGradient id="machine" x1="0" x2="1">
      <stop offset="0" stop-color="#475569"/>
      <stop offset="1" stop-color="#1f2937"/>
    </linearGradient>
  </defs>
  <rect width="1600" height="900" fill="url(#bg)"/>
  <path d="M0 620h1600v280H0z" fill="#cbd5e1"/>
  <path d="M0 620h1600" stroke="#94a3b8" stroke-width="6"/>
  <path d="M110 130h1380v95H110z" fill="#0f172a"/>
  <g fill="#facc15">
    <rect x="180" y="160" width="180" height="18" rx="9"/>
    <rect x="510" y="160" width="180" height="18" rx="9"/>
    <rect x="840" y="160" width="180" height="18" rx="9"/>
    <rect x="1170" y="160" width="180" height="18" rx="9"/>
  </g>
  <g transform="translate(170 345)">
    <rect x="0" y="90" width="310" height="245" rx="18" fill="url(#machine)"/>
    <rect x="45" y="0" width="220" height="150" rx="16" fill="#64748b"/>
    <rect x="72" y="28" width="166" height="92" rx="10" fill="#dbeafe"/>
    <circle cx="255" cy="208" r="28" fill="#22c55e"/>
    <rect x="38" y="276" width="235" height="34" rx="8" fill="#334155"/>
  </g>
  <g transform="translate(645 300)">
    <rect x="0" y="122" width="350" height="285" rx="20" fill="url(#machine)"/>
    <rect x="55" y="0" width="240" height="175" rx="18" fill="#64748b"/>
    <rect x="90" y="36" width="170" height="100" rx="12" fill="#bfdbfe"/>
    <rect x="270" y="190" width="46" height="92" rx="10" fill="#f97316"/>
    <rect x="46" y="327" width="260" height="40" rx="8" fill="#334155"/>
  </g>
  <g transform="translate(1135 350)">
    <rect x="0" y="84" width="295" height="236" rx="18" fill="url(#machine)"/>
    <rect x="42" y="0" width="208" height="135" rx="16" fill="#64748b"/>
    <rect x="74" y="30" width="142" height="70" rx="10" fill="#dbeafe"/>
    <circle cx="244" cy="191" r="24" fill="#38bdf8"/>
    <rect x="38" y="262" width="220" height="32" rx="8" fill="#334155"/>
  </g>
  <path d="M190 748h1220" stroke="#94a3b8" stroke-width="5" stroke-linecap="round" stroke-dasharray="18 26"/>
</svg>
