<svg xmlns="http://www.w3.org/2000/svg" viewBox="0 0 1600 900" role="img" aria-labelledby="title desc">
  <title id="title">Raw material storage</title>
  <desc id="desc">Illustrated organized industrial material storage area.</desc>
  <rect width="1600" height="900" fill="#f8fafc"/>
  <path d="M0 625h1600v275H0z" fill="#dbe4ee"/>
  <g transform="translate(225 170)">
    <rect width="1150" height="500" rx="28" fill="#e2e8f0"/>
    <g fill="#475569">
      <rect x="90" y="70" width="160" height="360" rx="12"/>
      <rect x="495" y="70" width="160" height="360" rx="12"/>
      <rect x="900" y="70" width="160" height="360" rx="12"/>
    </g>
    <g fill="#94a3b8">
      <rect x="130" y="115" width="890" height="36" rx="12"/>
      <rect x="130" y="230" width="890" height="36" rx="12"/>
      <rect x="130" y="345" width="890" height="36" rx="12"/>
    </g>
    <g fill="#f97316">
      <rect x="285" y="98" width="165" height="70" rx="10"/>
      <rect x="690" y="213" width="165" height="70" rx="10"/>
      <rect x="285" y="328" width="165" height="70" rx="10"/>
    </g>
    <g fill="#38bdf8">
      <rect x="690" y="98" width="165" height="70" rx="10"/>
      <rect x="285" y="213" width="165" height="70" rx="10"/>
      <rect x="690" y="328" width="165" height="70" rx="10"/>
    </g>
  </g>
  <path d="M340 745h920" stroke="#94a3b8" stroke-width="5" stroke-linecap="round" stroke-dasharray="18 24"/>
</svg>
